<svg width="64" height="64" viewBox="0 0 64 64" fill="none" xmlns="http://www.w3.org/2000/svg">
  <defs>
    <radialGradient id="bg" cx="0" cy="0" r="1" gradientUnits="userSpaceOnUse" gradientTransform="translate(18 14) rotate(40) scale(54)">
      <stop stop-color="#171A2A"/>
      <stop offset="0.55" stop-color="#0B0D18"/>
      <stop offset="1" stop-color="#05060D"/>
    </radialGradient>
    <linearGradient id="frame" x1="8" y1="8" x2="56" y2="56" gradientUnits="userSpaceOnUse">
      <stop stop-color="#4D9EFF"/>
      <stop offset="0.5" stop-color="#00E5A0"/>
      <stop offset="1" stop-color="#9B7FFF"/>
    </linearGradient>
    <linearGradient id="mark" x1="18" y1="18" x2="44" y2="46" gradientUnits="userSpaceOnUse">
      <stop stop-color="#F4FFF9"/>
      <stop offset="0.45" stop-color="#88FFDB"/>
      <stop offset="1" stop-color="#00E5A0"/>
    </linearGradient>
    <radialGradient id="orb" cx="0" cy="0" r="1" gradientUnits="userSpaceOnUse" gradientTransform="translate(47 17) rotate(90) scale(12)">
      <stop stop-color="#4D9EFF" stop-opacity="0.7"/>
      <stop offset="1" stop-color="#4D9EFF" stop-opacity="0"/>
    </radialGradient>
    <filter id="glow" x="10" y="12" width="44" height="38" filterUnits="userSpaceOnUse" color-interpolation-filters="sRGB">
      <feFlood flood-opacity="0" result="BackgroundImageFix"/>
      <feBlend mode="normal" in="SourceGraphic" in2="BackgroundImageFix" result="shape"/>
      <feGaussianBlur stdDeviation="2" result="effect1_foregroundBlur"/>
    </filter>
    <filter id="dotGlow" x="38" y="34" width="22" height="22" filterUnits="userSpaceOnUse" color-interpolation-filters="sRGB">
      <feFlood flood-opacity="0" result="BackgroundImageFix"/>
      <feBlend mode="normal" in="SourceGraphic" in2="BackgroundImageFix" result="shape"/>
      <feGaussianBlur stdDeviation="2.5" result="effect1_foregroundBlur"/>
    </filter>
  </defs>

  <rect width="64" height="64" rx="20" fill="url(#bg)"/>
  <rect x="4.5" y="4.5" width="55" height="55" rx="17.5" stroke="url(#frame)" stroke-opacity="0.45"/>

  <circle cx="47" cy="17" r="11" fill="url(#orb)"/>
  <circle cx="18" cy="49" r="10" fill="#00E5A0" fill-opacity="0.08"/>

  <path
    d="M45 19H28.5C23 19 19 21.9 19 26.3C19 30.8 22.4 33.2 28 33.9L33.1 34.5C37.2 35 39.3 36.4 39.3 39.1C39.3 42.4 36.5 45 31.1 45H18.5"
    stroke="url(#mark)"
    stroke-width="6.5"
    stroke-linecap="round"
    stroke-linejoin="round"
  />
  <path
    d="M45 19H28.5C23 19 19 21.9 19 26.3C19 30.8 22.4 33.2 28 33.9L33.1 34.5C37.2 35 39.3 36.4 39.3 39.1C39.3 42.4 36.5 45 31.1 45H18.5"
    stroke="#00E5A0"
    stroke-opacity="0.2"
    stroke-width="6.5"
    stroke-linecap="round"
    stroke-linejoin="round"
    filter="url(#glow)"
  />

  <circle cx="49" cy="44" r="4" fill="#00E5A0"/>
  <circle cx="49" cy="44" r="4" fill="#00E5A0" fill-opacity="0.55" filter="url(#dotGlow)"/>
</svg>
